<svg id="Ebene_1" data-name="Ebene 1" xmlns="http://www.w3.org/2000/svg" viewBox="0 0 1000 275.12"><defs><style>.cls-1{fill:#000b8c;}</style></defs><path class="cls-1" d="M170.9,147.76A5.58,5.58,0,0,1,168.73,137c9.07-3.84,19.88-10.51,19.88-20.43A81.89,81.89,0,0,0,61,48.72a5.59,5.59,0,0,1-6.28-9.25,93.07,93.07,0,0,1,145.08,77.14c0,8.84-4.63,21.35-26.68,30.71A5.33,5.33,0,0,1,170.9,147.76Z"/><path class="cls-1" d="M107.15,158.36c-32.29,0-66.54-6.33-83.05-20.82-6.9-6-10.38-13.09-10.38-20.93A92.15,92.15,0,0,1,33.18,59.68,5.59,5.59,0,0,1,42.4,66a5.34,5.34,0,0,1-.41.53,81.11,81.11,0,0,0-17.1,50.09c0,4.54,2.15,8.64,6.59,12.55,16.63,14.59,62.15,21.76,103.67,16.32a5.59,5.59,0,0,1,1.79,11l-.34.05a229.8,229.8,0,0,1-29.43,1.84Z"/><path class="cls-1" d="M101.52,242.57V186.5a5.71,5.71,0,0,1,5.41-5.8,5.55,5.55,0,0,1,5.69,5.4v56.73a5.55,5.55,0,0,1-5.55,5.55h-.14A5.73,5.73,0,0,1,101.52,242.57Z"/><path class="cls-1" d="M162.59,227.63V173.14a5.73,5.73,0,0,1,5.41-5.81,5.56,5.56,0,0,1,5.7,5.41v55.15a5.55,5.55,0,0,1-5.56,5.55H168A5.72,5.72,0,0,1,162.59,227.63Z"/><path class="cls-1" d="M39.66,227.63V173.14a5.72,5.72,0,0,1,5.41-5.8,5.55,5.55,0,0,1,5.69,5.4V227.9a5.55,5.55,0,0,1-5.55,5.55h-.14A5.73,5.73,0,0,1,39.66,227.63Z"/><path class="cls-1" d="M0,181.72V153.11a5.71,5.71,0,0,1,5.41-5.8,5.54,5.54,0,0,1,5.69,5.4.71.71,0,0,1,0,.14V182a5.56,5.56,0,0,1-5.55,5.55H5.41A5.72,5.72,0,0,1,0,181.72Z"/><path class="cls-1" d="M202.25,181.72V153.11a5.71,5.71,0,0,1,5.41-5.8,5.54,5.54,0,0,1,5.69,5.4V182a5.55,5.55,0,0,1-5.54,5.55h-.15A5.72,5.72,0,0,1,202.25,181.72Z"/><path class="cls-1" d="M968.41,274.4H1000v-4.16H972.79V248.07h24v-4.16h-24V222.54H999.2v-4.16H968.41Zm-33.75-8.72a24,24,0,0,1-15.2,5.28c-13.92,0-23.63-9.84-23.63-24.57,0-14.17,9.23-24.57,22.76-24.57,6,0,10.74,1.36,14.72,4.4l2.07-3.28c-4.22-3.52-9.87-5.28-16.87-5.28-16.79,0-27.29,12.64-27.29,28.73,0,17.45,11.38,28.73,27.93,28.73,6.6,0,13.44-2.32,17.26-6.16Zm-77,8.72v-56h-4.14v48.34l-38.11-48.34h-3.5v56H816V226.22l38.11,48.18Zm-112,0h31.59v-4.16H750V248.07h24v-4.16H750V222.54h26.42v-4.16h-30.8Zm-57.54-52c11.3,0,15.12,5.2,15.12,12,0,7.44-7.16,12.32-14.24,12.32h-9.63V222.54c2.63-.08,7.08-.16,8.75-.16m-8.75,52V250.87h10.82l18.54,23.53h5.41L694.65,250c7.48-1.6,13.21-7.6,13.21-15.6,0-8.57-4.3-16.17-19.5-16.17-1.59,0-10.26.16-13.36.16v56Zm-70.59,0h31.59v-4.16H613.16V248.07h24v-4.16h-24V222.54h26.41v-4.16H608.78Zm-63.59,0h4.38V249.75h24.35v-4.16H549.57V222.54H576.3v-4.16H545.19Zm-38.12,0v-56h-4.14v48.34l-38.11-48.34h-3.5v56h4.14V226.22l38.11,48.18Zm-130.58-28c0-14.17,10.1-24.57,23.31-24.57s23.31,10.4,23.31,24.57c0,13.93-9.71,24.57-23.31,24.57-13.13,0-23.31-10.56-23.31-24.57m-4.62,0c0,16.73,12.1,28.73,27.93,28.73s27.93-12.24,27.93-28.73c0-16.73-12.1-28.73-27.93-28.73-16.07,0-27.93,12.48-27.93,28.73m-27.15,19.29A24,24,0,0,1,329.53,271c-13.93,0-23.63-9.84-23.63-24.57,0-14.17,9.23-24.57,22.75-24.57,6.05,0,10.74,1.36,14.72,4.4l2.07-3.28c-4.22-3.52-9.87-5.28-16.87-5.28-16.79,0-27.29,12.64-27.29,28.73,0,17.45,11.38,28.73,27.93,28.73,6.6,0,13.44-2.32,17.26-6.16Z"/><path class="cls-1" d="M968.41,56.74H1000V52.58H972.79V30.41h24V26.25h-24V4.88H999.2V.72H968.41ZM939.21,48A23.92,23.92,0,0,1,924,53.3c-13.93,0-23.63-9.84-23.63-24.57,0-14.16,9.23-24.57,22.75-24.57,6.05,0,10.74,1.36,14.72,4.4l2.07-3.28C935.71,1.76,930.06,0,923.06,0c-16.79,0-27.29,12.64-27.29,28.73,0,17.45,11.38,28.73,27.93,28.73,6.6,0,13.45-2.32,17.27-6.16ZM849.39,4.72c11.3,0,15.11,5.2,15.11,12,0,7.44-7.16,12.32-14.24,12.32h-9.63V4.88c2.63-.08,7.09-.16,8.76-.16m-8.76,52V33.21h10.83L870,56.74h5.41L855.91,32.33c7.48-1.6,13.21-7.6,13.21-15.6,0-8.57-4.3-16.17-19.49-16.17-1.6,0-10.27.16-13.37.16v56ZM803.48.72H799.1V32.33c0,14.33-6.92,20.89-16.7,20.89-11,0-18.22-7.68-18.22-21.29V.72H759.8v32c0,16.41,9.63,24.65,22.6,24.65,11.21,0,21.08-7,21.08-24.09Zm-123.16,28c0-14.16,10.1-24.57,23.31-24.57s23.31,10.41,23.31,24.57c0,13.93-9.71,24.57-23.31,24.57-13.13,0-23.31-10.56-23.31-24.57m-4.62,0c0,16.73,12.1,28.73,27.93,28.73s27.93-12.24,27.93-28.73C731.56,12,719.46,0,703.63,0,687.56,0,675.7,12.48,675.7,28.73M646.58,42.82c0,6.88-6.36,10.48-13.21,10.48-5,0-11.13-2.48-14.4-7l-2.62,3c2.78,5,10.5,8.08,17.1,8.08,9.87,0,17.75-5.76,17.75-14.72,0-19.45-28.81-13-28.81-28.73,0-5.93,4.54-9.85,11.86-9.85A16.74,16.74,0,0,1,646.66,9l2.39-3.28C646,2.24,640.3,0,634.09,0c-10.34,0-16.31,6.16-16.31,14,0,18.72,28.8,13,28.8,28.81M556,56.74V.72H551.9V49.06L513.79.72h-3.5v56h4.14V8.56l38.11,48.18Zm-107.41,0h31.59V52.58H453V30.41h24V26.25H453V4.88h26.41V.72H448.63Zm-48.45-52c10.5,0,14.8,5.36,14.8,12.65,0,7.68-5.25,13-15.36,13-3.18,0-6-.16-9.07-.4V4.88c2.63-.08,7.16-.16,9.63-.16m-9.63,52V34.25c3.18.24,6.61.32,9.23.32,13.84,0,19.81-8.4,19.81-17.12,0-8.33-4.37-16.89-19.81-16.89-3.18,0-10.5.16-13.61.16v56Zm-84.65-28c0-14.16,10.1-24.57,23.31-24.57s23.31,10.41,23.31,24.57c0,13.93-9.71,24.57-23.31,24.57-13.13,0-23.31-10.56-23.31-24.57m-4.62,0c0,16.73,12.09,28.73,27.93,28.73s27.92-12.24,27.92-28.73C357.13,12,345,0,329.21,0c-16.07,0-27.93,12.48-27.93,28.73"/><path class="cls-1" d="M985.29,149.68v9.84c0,4.25-2.88,5-6.33,5H963.71c-5.47,0-6.62-1.64-6.62-6.95V138.68c0-4.73,0-8.78,3-12.55l10.46-13.41c3.16-4.06,2.78-4,8.06-4h11.51c2.5,0,4.8-1.35,4.8-4.82s-2.3-4.83-4.8-4.83H977.23c-6.23,0-9.59,1.64-13.43,6.56l-11.32,14.58c-3.65,4.72-5,7.91-5,14.09v24.12c0,4.83.67,8.4,4.51,11.87,3.36,3.09,6.62,3.86,11,3.86h16.5c9.11,0,15.35-5.79,15.35-15.15V140H976c-2.5,0-4.8,1.35-4.8,4.82s2.3,4.83,4.8,4.83Zm-71.11,8h-.1L889,99.11H876.37v70.26c0,3.09,1.35,4.82,4.8,4.82s4.8-1.73,4.8-4.82V116.29h.19v.1l25,57.9h12.67V104c0-3.09-1.35-4.82-4.8-4.82s-4.8,1.73-4.8,4.82Zm-80.43-48.93h14.11c2.49,0,4.79-1.35,4.79-4.82a4.43,4.43,0,0,0-4.79-4.83H810.05a4.43,4.43,0,0,0-4.79,4.83c0,3.47,2.3,4.82,4.79,4.82h14.11v55.78H810.05a4.43,4.43,0,0,0-4.79,4.83c0,3.47,2.3,4.82,4.79,4.82h37.81c2.49,0,4.79-1.35,4.79-4.82a4.43,4.43,0,0,0-4.79-4.83H833.75Zm-90,0h21.4c2.88,0,6.81.48,6.81,4.34v6.66c0,3.86-4.22,4.06-6.91,4.06h-21.3Zm0,24.71h2.21l26.48,38c1.06,1.54,2.3,2.7,4.22,2.7a4.6,4.6,0,0,0,4.89-4.53c0-1.84-1.34-3.67-2.39-5.12l-21.59-31.07h8.82c7.68,0,15.16-4.64,15.16-13.71V113.1c0-8.59-7.58-14-15.16-14H734.14v70.26c0,3.09,1.34,4.82,4.79,4.82s4.8-1.73,4.8-4.82Zm-45.11-4.35c1.43,2.8,2.2,4.64,2.2,7.82a13,13,0,0,1-1.63,6.37L690,161.65c-.67,1.35-1.34,2.89-3.26,2.89s-2.59-1.54-3.26-2.89l-9.22-18.34a13.14,13.14,0,0,1-1.63-6.37c0-3.18.77-5,2.21-7.82l8.64-17.46c.76-1.55,1.24-2.9,3.26-2.9s2.49,1.35,3.26,2.9Zm-.29-22.1c-2.3-4.53-6.24-7.91-11.61-7.91s-9.31,3.38-11.61,7.91l-9.6,19.21A22,22,0,0,0,663,136.94c0,4.63,1.25,7.53,3.17,11.49L675,166.18c2.31,4.64,6.14,8,11.71,8s9.4-3.37,11.7-8l8.83-17.75c1.92-4,3.17-6.86,3.17-11.49a22,22,0,0,0-2.5-10.71Zm-87.53,1.74v60.61c0,3.09,1.35,4.82,4.8,4.82s4.8-1.73,4.8-4.82V108.76h9.3v3.47c0,3.09,1.35,4.83,4.8,4.83s4.8-1.74,4.8-4.83V99.11H591.9v13.12c0,3.09,1.34,4.83,4.8,4.83s4.8-1.74,4.8-4.83v-3.47Zm-61.52,0h14.1c2.5,0,4.8-1.35,4.8-4.82s-2.3-4.83-4.8-4.83h-37.8c-2.49,0-4.8,1.35-4.8,4.83s2.31,4.82,4.8,4.82h14.1v55.78h-14.1c-2.49,0-4.8,1.35-4.8,4.83s2.31,4.82,4.8,4.82h37.8c2.5,0,4.8-1.35,4.8-4.82s-2.3-4.83-4.8-4.83h-14.1Zm-61.81,48.93h-.1l-25-58.58H449.67v70.26c0,3.09,1.34,4.82,4.79,4.82s4.8-1.73,4.8-4.82V116.29h.19v.1l25,57.9h12.67V104c0-3.09-1.35-4.82-4.8-4.82s-4.8,1.73-4.8,4.82Zm-73.33-28.57c1.44,2.8,2.21,4.64,2.21,7.82a13.14,13.14,0,0,1-1.63,6.37l-9.21,18.34c-.67,1.35-1.34,2.89-3.27,2.89s-2.59-1.54-3.26-2.89l-9.21-18.34a13.14,13.14,0,0,1-1.63-6.37c0-3.18.77-5,2.21-7.82L399,111.66c.77-1.55,1.25-2.9,3.26-2.9s2.5,1.35,3.27,2.9Zm-.28-22.1c-2.31-4.53-6.24-7.91-11.62-7.91s-9.3,3.38-11.6,7.91L381,126.23a22,22,0,0,0-2.49,10.71c0,4.63,1.24,7.53,3.16,11.49l8.83,17.75c2.3,4.64,6.14,8,11.7,8s9.41-3.37,11.71-8l8.83-17.75c1.92-4,3.16-6.86,3.16-11.49a22,22,0,0,0-2.49-10.71Zm-82.73,9.08-11.71-17h-12v70.26c0,3.09,1.34,4.82,4.8,4.82s4.79-1.73,4.79-4.82V112.43h.2l9.11,13.6v1.55c0,3,1.34,5.79,4.8,5.79,3.64,0,4.79-2.8,4.79-5.79V126l9.12-13.6h.19v56.94c0,3.09,1.35,4.82,4.8,4.82s4.8-1.73,4.8-4.82V99.11h-12Z"/></svg>